<mxfile host="app.diagrams.net" modified="2022-05-24T11:58:44.894Z" agent="5.0 (Windows NT 10.0; Win64; x64) AppleWebKit/537.36 (KHTML, like Gecko) Chrome/101.0.0.0 Safari/537.36" etag="gkOi0NGlE4yXVTQgqHVd" version="18.1.2" type="github">
  <diagram id="JtRsb9dR_s1ZqosVjEI6" name="Page-1">
    <mxGraphModel dx="907" dy="507" grid="1" gridSize="10" guides="1" tooltips="1" connect="1" arrows="1" fold="1" page="1" pageScale="1" pageWidth="827" pageHeight="1169" math="0" shadow="0">
      <root>
        <mxCell id="0" />
        <mxCell id="1" parent="0" />
        <mxCell id="CUs1m5vH4RLbSxlX3L1v-1" value="context" style="shape=cylinder3;whiteSpace=wrap;html=1;boundedLbl=1;backgroundOutline=1;size=15;fontSize=19;" vertex="1" parent="1">
          <mxGeometry x="580" y="20" width="110" height="160" as="geometry" />
        </mxCell>
        <mxCell id="CUs1m5vH4RLbSxlX3L1v-10" style="edgeStyle=orthogonalEdgeStyle;rounded=0;orthogonalLoop=1;jettySize=auto;html=1;exitX=0.5;exitY=1;exitDx=0;exitDy=0;entryX=0.45;entryY=-0.003;entryDx=0;entryDy=0;entryPerimeter=0;fontSize=19;" edge="1" parent="1" source="CUs1m5vH4RLbSxlX3L1v-2" target="CUs1m5vH4RLbSxlX3L1v-6">
          <mxGeometry relative="1" as="geometry">
            <mxPoint x="413" y="330" as="targetPoint" />
          </mxGeometry>
        </mxCell>
        <mxCell id="CUs1m5vH4RLbSxlX3L1v-2" value="App" style="rounded=0;whiteSpace=wrap;html=1;fontSize=19;" vertex="1" parent="1">
          <mxGeometry x="353" y="230" width="120" height="60" as="geometry" />
        </mxCell>
        <mxCell id="CUs1m5vH4RLbSxlX3L1v-4" style="edgeStyle=orthogonalEdgeStyle;rounded=0;orthogonalLoop=1;jettySize=auto;html=1;fontSize=19;" edge="1" parent="1" source="CUs1m5vH4RLbSxlX3L1v-3" target="CUs1m5vH4RLbSxlX3L1v-2">
          <mxGeometry relative="1" as="geometry" />
        </mxCell>
        <mxCell id="CUs1m5vH4RLbSxlX3L1v-3" value="index" style="rounded=0;whiteSpace=wrap;html=1;fontSize=19;" vertex="1" parent="1">
          <mxGeometry x="353" y="110" width="120" height="60" as="geometry" />
        </mxCell>
        <mxCell id="CUs1m5vH4RLbSxlX3L1v-20" style="edgeStyle=orthogonalEdgeStyle;rounded=0;orthogonalLoop=1;jettySize=auto;html=1;fontSize=19;" edge="1" parent="1" source="CUs1m5vH4RLbSxlX3L1v-5" target="CUs1m5vH4RLbSxlX3L1v-8">
          <mxGeometry relative="1" as="geometry" />
        </mxCell>
        <mxCell id="CUs1m5vH4RLbSxlX3L1v-21" style="edgeStyle=orthogonalEdgeStyle;rounded=0;orthogonalLoop=1;jettySize=auto;html=1;fontSize=19;" edge="1" parent="1" source="CUs1m5vH4RLbSxlX3L1v-5">
          <mxGeometry relative="1" as="geometry">
            <mxPoint x="410" y="480" as="targetPoint" />
            <Array as="points">
              <mxPoint x="270" y="380" />
              <mxPoint x="270" y="480" />
            </Array>
          </mxGeometry>
        </mxCell>
        <mxCell id="CUs1m5vH4RLbSxlX3L1v-5" value="componet 1" style="rounded=0;whiteSpace=wrap;html=1;fontSize=19;" vertex="1" parent="1">
          <mxGeometry x="148" y="350" width="120" height="60" as="geometry" />
        </mxCell>
        <mxCell id="CUs1m5vH4RLbSxlX3L1v-6" value="&lt;span style=&quot;font-size: 19px;&quot;&gt;componet 2&lt;br style=&quot;font-size: 19px;&quot;&gt;&lt;/span&gt;" style="rounded=0;whiteSpace=wrap;html=1;fontSize=19;" vertex="1" parent="1">
          <mxGeometry x="358" y="350" width="120" height="60" as="geometry" />
        </mxCell>
        <mxCell id="CUs1m5vH4RLbSxlX3L1v-7" value="&lt;span style=&quot;&quot;&gt;componet 3&lt;br&gt;&lt;/span&gt;" style="rounded=0;whiteSpace=wrap;html=1;" vertex="1" parent="1">
          <mxGeometry x="558" y="350" width="120" height="60" as="geometry" />
        </mxCell>
        <mxCell id="CUs1m5vH4RLbSxlX3L1v-8" value="child componets 1" style="rounded=0;whiteSpace=wrap;html=1;fontSize=19;" vertex="1" parent="1">
          <mxGeometry x="183" y="495" width="120" height="60" as="geometry" />
        </mxCell>
        <mxCell id="CUs1m5vH4RLbSxlX3L1v-9" value="&lt;span style=&quot;font-size: 19px;&quot;&gt;child componets 2&lt;/span&gt;" style="rounded=0;whiteSpace=wrap;html=1;fontSize=19;" vertex="1" parent="1">
          <mxGeometry x="358" y="495" width="120" height="60" as="geometry" />
        </mxCell>
        <mxCell id="CUs1m5vH4RLbSxlX3L1v-12" value="" style="endArrow=none;html=1;rounded=0;fontSize=19;" edge="1" parent="1">
          <mxGeometry width="50" height="50" relative="1" as="geometry">
            <mxPoint x="190" y="320" as="sourcePoint" />
            <mxPoint x="620" y="320" as="targetPoint" />
          </mxGeometry>
        </mxCell>
        <mxCell id="CUs1m5vH4RLbSxlX3L1v-18" value="" style="endArrow=classic;html=1;rounded=0;entryX=0.35;entryY=0;entryDx=0;entryDy=0;entryPerimeter=0;fontSize=19;" edge="1" parent="1" target="CUs1m5vH4RLbSxlX3L1v-5">
          <mxGeometry width="50" height="50" relative="1" as="geometry">
            <mxPoint x="190" y="320" as="sourcePoint" />
            <mxPoint x="330" y="430" as="targetPoint" />
          </mxGeometry>
        </mxCell>
        <mxCell id="CUs1m5vH4RLbSxlX3L1v-19" value="" style="endArrow=classic;html=1;rounded=0;entryX=0.547;entryY=-0.013;entryDx=0;entryDy=0;entryPerimeter=0;fontSize=19;" edge="1" parent="1" target="CUs1m5vH4RLbSxlX3L1v-7">
          <mxGeometry width="50" height="50" relative="1" as="geometry">
            <mxPoint x="620" y="320" as="sourcePoint" />
            <mxPoint x="650" y="450" as="targetPoint" />
          </mxGeometry>
        </mxCell>
        <mxCell id="CUs1m5vH4RLbSxlX3L1v-22" style="edgeStyle=orthogonalEdgeStyle;rounded=0;orthogonalLoop=1;jettySize=auto;html=1;fontSize=19;" edge="1" parent="1" source="CUs1m5vH4RLbSxlX3L1v-5" target="CUs1m5vH4RLbSxlX3L1v-9">
          <mxGeometry relative="1" as="geometry">
            <mxPoint x="410" y="480" as="targetPoint" />
            <Array as="points">
              <mxPoint x="270" y="380" />
              <mxPoint x="270" y="480" />
              <mxPoint x="418" y="480" />
            </Array>
          </mxGeometry>
        </mxCell>
        <mxCell id="CUs1m5vH4RLbSxlX3L1v-37" value="" style="curved=1;endArrow=classic;html=1;rounded=0;fontSize=19;entryX=1;entryY=1;entryDx=0;entryDy=-15;entryPerimeter=0;" edge="1" parent="1" target="CUs1m5vH4RLbSxlX3L1v-1">
          <mxGeometry width="50" height="50" relative="1" as="geometry">
            <mxPoint x="480" y="530" as="sourcePoint" />
            <mxPoint x="790" y="390" as="targetPoint" />
            <Array as="points">
              <mxPoint x="560" y="490" />
              <mxPoint x="730" y="620" />
            </Array>
          </mxGeometry>
        </mxCell>
        <mxCell id="CUs1m5vH4RLbSxlX3L1v-38" value="" style="curved=1;endArrow=classic;html=1;rounded=0;fontSize=19;entryX=0;entryY=1;entryDx=0;entryDy=-15;entryPerimeter=0;" edge="1" parent="1" target="CUs1m5vH4RLbSxlX3L1v-1">
          <mxGeometry width="50" height="50" relative="1" as="geometry">
            <mxPoint x="180" y="530" as="sourcePoint" />
            <mxPoint x="530" y="260" as="targetPoint" />
            <Array as="points">
              <mxPoint x="-60" y="260" />
              <mxPoint x="370" y="-40" />
            </Array>
          </mxGeometry>
        </mxCell>
        <mxCell id="CUs1m5vH4RLbSxlX3L1v-40" value="" style="curved=1;endArrow=classic;html=1;rounded=0;fontSize=19;entryX=0.5;entryY=1;entryDx=0;entryDy=0;entryPerimeter=0;" edge="1" parent="1" target="CUs1m5vH4RLbSxlX3L1v-1">
          <mxGeometry width="50" height="50" relative="1" as="geometry">
            <mxPoint x="480" y="360" as="sourcePoint" />
            <mxPoint x="530" y="240" as="targetPoint" />
            <Array as="points">
              <mxPoint x="570" y="300" />
              <mxPoint x="530" y="220" />
            </Array>
          </mxGeometry>
        </mxCell>
        <mxCell id="CUs1m5vH4RLbSxlX3L1v-41" value="" style="curved=1;endArrow=classic;html=1;rounded=0;fontSize=19;exitX=0;exitY=0;exitDx=0;exitDy=0;entryX=0;entryY=1;entryDx=0;entryDy=-15;entryPerimeter=0;" edge="1" parent="1" source="CUs1m5vH4RLbSxlX3L1v-5" target="CUs1m5vH4RLbSxlX3L1v-1">
          <mxGeometry width="50" height="50" relative="1" as="geometry">
            <mxPoint x="480" y="290" as="sourcePoint" />
            <mxPoint x="530" y="240" as="targetPoint" />
            <Array as="points">
              <mxPoint x="230" y="200" />
              <mxPoint x="480" y="210" />
            </Array>
          </mxGeometry>
        </mxCell>
        <mxCell id="CUs1m5vH4RLbSxlX3L1v-42" value="" style="curved=1;endArrow=classic;html=1;rounded=0;fontSize=19;exitX=0.75;exitY=0;exitDx=0;exitDy=0;entryX=0.67;entryY=1.023;entryDx=0;entryDy=0;entryPerimeter=0;" edge="1" parent="1" source="CUs1m5vH4RLbSxlX3L1v-7" target="CUs1m5vH4RLbSxlX3L1v-1">
          <mxGeometry width="50" height="50" relative="1" as="geometry">
            <mxPoint x="480" y="290" as="sourcePoint" />
            <mxPoint x="530" y="240" as="targetPoint" />
            <Array as="points" />
          </mxGeometry>
        </mxCell>
        <mxCell id="CUs1m5vH4RLbSxlX3L1v-48" value="" style="curved=1;endArrow=classic;html=1;rounded=0;fontSize=19;entryX=0;entryY=0.5;entryDx=0;entryDy=0;entryPerimeter=0;" edge="1" parent="1" target="CUs1m5vH4RLbSxlX3L1v-1">
          <mxGeometry width="50" height="50" relative="1" as="geometry">
            <mxPoint x="520" y="170" as="sourcePoint" />
            <mxPoint x="530" y="240" as="targetPoint" />
            <Array as="points">
              <mxPoint x="500" y="120" />
              <mxPoint x="490" y="100" />
              <mxPoint x="410" y="70" />
              <mxPoint x="340" y="90" />
              <mxPoint x="300" y="150" />
              <mxPoint x="380" y="190" />
              <mxPoint x="470" y="180" />
              <mxPoint x="520" y="180" />
            </Array>
          </mxGeometry>
        </mxCell>
      </root>
    </mxGraphModel>
  </diagram>
</mxfile>
